- 
http://www.Speed.Cd      fast  and The Hottest Private Tracker on the net

   signup is open now

Please Seed back to make the speed Faster!!!

------------------nfo--------------------------
-








































          
          
              
              
                    
                    
                    
                    

Loosies.2011.VODRip.XivD.MP3-SiC

Poster:
[img]http://img526.imageshack.us/img526/5808/mv5bmtcymzy5mjmxml5bml5.jpg[/img]

IMDB Link: 
http://www.imdb.com/title/tt1568337/

Description:
A young pickpocket in the New York subways, living a fast, free, lifestyle is confronted by a woman whom he had a one night affair with, she informs him that she is now pregnant with his child, he must now choose between continuing the lifestyle he lead or take responsibility for his actions.

General
Complete name                    : \\Tim-pc\x\vob\loosies\Loosies.2011.VODRip.XviD.MP3-SiC.avi
Format                           : AVI
Format/Info                      : Audio Video Interleave
File size                        : 1.37 GiB
Duration                         : 1h 28mn
Overall bit rate                 : 2 214 Kbps
Writing library                  : VirtualDub build 32839/release

Video
ID                               : 0
Format                           : MPEG-4 Visual
Format profile                   : Advanced Simple@L5
Format settings, BVOP            : Yes
Format settings, QPel            : No
Format settings, GMC             : No warppoints
Format settings, Matrix          : Default (MPEG)
Muxing mode                      : Packed bitstream
Codec ID                         : XVID
Codec ID/Hint                    : XviD
Duration                         : 1h 28mn
Bit rate                         : 2 073 Kbps
Width                            : 720 pixels
Height                           : 400 pixels
Display aspect ratio             : 16:9
Frame rate                       : 25.000 fps
Color space                      : YUV
Chroma subsampling               : 4:2:0
Bit depth                        : 8 bits
Scan type                        : Progressive
Bits/(Pixel*Frame)               : 0.288
Stream size                      : 1.29 GiB (94%)
Writing library                  : XviD 64

Audio
ID                               : 1
Format                           : MPEG Audio
Format version                   : Version 1
Format profile                   : Layer 3
Codec ID                         : 55
Codec ID/Hint                    : MP3
Duration                         : 1h 28mn
Bit rate mode                    : Constant
Bit rate                         : 128 Kbps
Channel(s)                       : 2 channels
Sampling rate                    : 44.1 KHz
Stream size                      : 81.3 MiB (6%)
Alignment                        : Aligned on interleaves
Interleave, duration             : 26 ms (0.65 video frame)
Interleave, preload duration     : 522 ms


Screenshots:
[IMG]http://img528.imageshack.us/img528/5830/snap1w.png[/IMG]
[IMG]http://img40.imageshack.us/img40/5425/snap2a.png[/IMG]
[IMG]http://img259.imageshack.us/img259/4706/snap3p.png[/IMG]
[IMG]http://img821.imageshack.us/img821/2318/snap4q.png[/IMG]
[IMG]http://img718.imageshack.us/img718/3314/snap5e.png[/IMG]

Note: did my thing turned out alright, this should hold you off until something more solid is released...

Source:  ours

Enjoy!

Respects to CM8, Rx, THC, ELEKTRI4KA, PA, YeFsTe, Box, MrRep and everyone in the struggle...